<?xml version="1.0" standalone="yes"?>
<svg xmlns="http://www.w3.org/2000/svg" width="200" height="200">
<path style="fill:#fefeff; stroke:none;" d="M0 0L0 200L200 200L200 0L0 0z"/>
<path style="fill:#5fa6cd; stroke:none;" d="M189 14L190 15L189 14M187 15L188 16L187 15z"/>
<path style="fill:#0271af; stroke:none;" d="M188 15L189 16L188 15M40 101C37.1832 88.713 34.1501 76.7079 34.0039 64C33.9569 59.9241 33.4013 53.9121 35.9884 50.4329C38.112 47.5771 42.7882 47.4509 46 46.9198C55.5365 45.3426 65.3394 44.1148 75 43.9961C85.1953 43.8709 100.371 46.0852 110 43.5702C119.241 41.1566 134.04 29.3205 140 22C107.938 20.6234 78.1787 16.8157 46 21.5787C36.3503 23.007 21.1662 23.018 14.419 31.1049C9.24821 37.3023 10.5338 45.607 9.83025 53C7.66281 75.7756 11.5846 100.017 20.8619 121C23.102 126.067 30.6249 144.782 37.0934 144.793C40.8392 144.8 45.316 139.164 48 136.92C57.7766 128.744 67.3514 120.326 77 112C100.312 91.8836 123.752 71.9096 147 51.7184C160.342 40.131 173.411 26.9756 188 17L176 22.2809L148 38.4213L40 101z"/>
<path style="fill:#5fa6cd; stroke:none;" d="M184 17L185 18L184 17M186 17L187 18L186 17z"/>
<path style="fill:#9ba5ab; stroke:none;" d="M70 18L70 19L73 19L70 18z"/>
<path style="fill:#5fa6cd; stroke:none;" d="M73 18L73 19L82 19L73 18M99 18L99 19L108 19L99 18z"/>
<path style="fill:#9ba5ab; stroke:none;" d="M108 18L108 19L111 19L108 18M182 18L183 19L182 18z"/>
<path style="fill:#5fa6cd; stroke:none;" d="M185 18L186 19L185 18z"/>
<path style="fill:#9ba5ab; stroke:none;" d="M58.6667 19.3333L59.3333 19.6667L58.6667 19.3333z"/>
<path style="fill:#5fa6cd; stroke:none;" d="M60 19L60 20L64 20L60 19M117 19L117 20L121 20L117 19z"/>
<path style="fill:#9ba5ab; stroke:none;" d="M121 19L122 20L121 19M180 19L181 20L180 19M184 19L185 20L184 19M50 20L51 21L50 20z"/>
<path style="fill:#5fa6cd; stroke:none;" d="M51 20L51 21L54 21L51 20M126 20L126 21L130 21L126 20z"/>
<path style="fill:#9ba5ab; stroke:none;" d="M130 20L131 21L130 20z"/>
<path style="fill:#5fa6cd; stroke:none;" d="M179 20L180 21L179 20z"/>
<path style="fill:#9ba5ab; stroke:none;" d="M43 21L44 22L43 21z"/>
<path style="fill:#5fa6cd; stroke:none;" d="M44 21L44 22L47 22L44 21M134 21L134 22L137 22L134 21z"/>
<path style="fill:#9ba5ab; stroke:none;" d="M137 21L138 22L137 21z"/>
<path style="fill:#5fa6cd; stroke:none;" d="M177 21L178 22L177 21z"/>
<path style="fill:#9ba5ab; stroke:none;" d="M37 22L38 23L37 22z"/>
<path style="fill:#5fa6cd; stroke:none;" d="M38.6667 22.3333L39.3333 22.6667L38.6667 22.3333M140 22L141 23L140 22z"/>
<path style="fill:#9ba5ab; stroke:none;" d="M175 22L176 23L175 22z"/>
<path style="fill:#5fa6cd; stroke:none;" d="M180 22L181 23L180 22z"/>
<path style="fill:#9ba5ab; stroke:none;" d="M31 23L32 24L31 23z"/>
<path style="fill:#5fa6cd; stroke:none;" d="M32.6667 23.3333L33.3333 23.6667L32.6667 23.3333M139 23L140 24L139 23M179 23L180 24L179 23M27.6667 24.3333L28.3333 24.6667L27.6667 24.3333M172 24L173 25L172 24z"/>
<path style="fill:#9ba5ab; stroke:none;" d="M178 24L179 25L178 24M22 25L23 26L22 25z"/>
<path style="fill:#5fa6cd; stroke:none;" d="M23 25L24 26L23 25M136 25L137 26L136 25M170 25L171 26L170 25z"/>
<path style="fill:#9ba5ab; stroke:none;" d="M177 25L178 26L177 25z"/>
<path style="fill:#5fa6cd; stroke:none;" d="M20 26L21 27L20 26z"/>
<path style="fill:#9ba5ab; stroke:none;" d="M135 26L136 27L135 26M168 26L169 27L168 26z"/>
<path style="fill:#5fa6cd; stroke:none;" d="M18 27L19 28L18 27M132 28L133 29L132 28M165 28L166 29L165 28M173 28L174 29L173 28z"/>
<path style="fill:#9ba5ab; stroke:none;" d="M15 29L16 30L15 29z"/>
<path style="fill:#5fa6cd; stroke:none;" d="M163 29L164 30L163 29M172 29L173 30L172 29z"/>
<path style="fill:#9ba5ab; stroke:none;" d="M14 30L15 31L14 30z"/>
<path style="fill:#5fa6cd; stroke:none;" d="M129 30L130 31L129 30z"/>
<path style="fill:#9ba5ab; stroke:none;" d="M161 30L162 31L161 30M171 30L172 31L171 30M128 31L129 32L128 31M170 31L171 32L170 31z"/>
<path style="fill:#5fa6cd; stroke:none;" d="M158 32L159 33L158 32z"/>
<path style="fill:#9ba5ab; stroke:none;" d="M12 33L13 34L12 33z"/>
<path style="fill:#5fa6cd; stroke:none;" d="M125 33L126 34L125 33M156 33L157 34L156 33z"/>
<path style="fill:#9ba5ab; stroke:none;" d="M154 34L155 35L154 34z"/>
<path style="fill:#5fa6cd; stroke:none;" d="M166 34L167 35L166 34z"/>
<path style="fill:#9ba5ab; stroke:none;" d="M11 35L12 36L11 35z"/>
<path style="fill:#5fa6cd; stroke:none;" d="M122 35L123 36L122 35M153 35L154 36L153 35M165 35L166 36L165 35M11 36L12 37L11 36M121 36L122 37L121 36M151 36L152 37L151 36M164 36L165 37L164 36z"/>
<path style="fill:#9ba5ab; stroke:none;" d="M149 37L150 38L149 37M163 37L164 38L163 37M10 38L11 39L10 38z"/>
<path style="fill:#5fa6cd; stroke:none;" d="M118 38L119 39L118 38M10.3333 39.6667L10.6667 40.3333L10.3333 39.6667z"/>
<path style="fill:#9ba5ab; stroke:none;" d="M117 39L118 40L117 39z"/>
<path style="fill:#5fa6cd; stroke:none;" d="M146 39L147 40L146 39M115 40L116 41L115 40M144 40L145 41L144 40z"/>
<path style="fill:#9ba5ab; stroke:none;" d="M114 41L115 42L114 41M142 41L143 42L142 41z"/>
<path style="fill:#5fa6cd; stroke:none;" d="M158 41L159 42L158 41M157 42L158 43L157 42M81 43L81 44L100 44L81 43M111 43L112 44L111 43M139 43L140 44L139 43z"/>
<path style="fill:#9ba5ab; stroke:none;" d="M156 43L157 44L156 43z"/>
<path style="fill:#5fa6cd; stroke:none;" d="M65 44L65 45L70 45L65 44z"/>
<path style="fill:#9ba5ab; stroke:none;" d="M70.6667 44.3333L71.3333 44.6667L70.6667 44.3333M109.667 44.3333L110.333 44.6667L109.667 44.3333z"/>
<path style="fill:#5fa6cd; stroke:none;" d="M137 44L138 45L137 44z"/>
<path style="fill:#9ba5ab; stroke:none;" d="M155 44L156 45L155 44z"/>
<path style="fill:#5fa6cd; stroke:none;" d="M56 45L56 46L59 46L56 45z"/>
<path style="fill:#9ba5ab; stroke:none;" d="M59 45L60 46L59 45M135 45L136 46L135 45z"/>
<path style="fill:#5fa6cd; stroke:none;" d="M48 46L48 47L51 47L48 46z"/>
<path style="fill:#9ba5ab; stroke:none;" d="M51 46L52 47L51 46z"/>
<path style="fill:#5fa6cd; stroke:none;" d="M152 46L153 47L152 46z"/>
<path style="fill:#9ba5ab; stroke:none;" d="M9.33333 47.6667L9.66667 48.3333L9.33333 47.6667z"/>
<path style="fill:#5fa6cd; stroke:none;" d="M42.6667 47.3333L43.3333 47.6667L42.6667 47.3333z"/>
<path style="fill:#9ba5ab; stroke:none;" d="M44 47L45 48L44 47z"/>
<path style="fill:#5fa6cd; stroke:none;" d="M132 47L133 48L132 47M151 47L152 48L151 47M37.6667 48.3333L38.3333 48.6667L37.6667 48.3333z"/>
<path style="fill:#9ba5ab; stroke:none;" d="M39 48L40 49L39 48M130 48L131 49L130 48z"/>
<path style="fill:#5fa6cd; stroke:none;" d="M150 48L151 49L150 48M9 49L9 56L10 56L9 49z"/>
<path style="fill:#9ba5ab; stroke:none;" d="M128 49L129 50L128 49M149 49L150 50L149 49z"/>
<path style="fill:#5fa6cd; stroke:none;" d="M127 50L128 51L127 50z"/>
<path style="fill:#9ba5ab; stroke:none;" d="M148 50L149 51L148 50z"/>
<path style="fill:#5fa6cd; stroke:none;" d="M125 51L126 52L125 51z"/>
<path style="fill:#9ba5ab; stroke:none;" d="M123 52L124 53L123 52z"/>
<path style="fill:#5fa6cd; stroke:none;" d="M144 53L145 54L144 53M34 54L34 71L35 71L34 54M120 54L121 55L120 54M143 54L144 55L143 54z"/>
<path style="fill:#9ba5ab; stroke:none;" d="M8 55L8 70L9 70L8 55z"/>
<path style="fill:#5fa6cd; stroke:none;" d="M118 55L119 56L118 55z"/>
<path style="fill:#9ba5ab; stroke:none;" d="M142 55L143 56L142 55M116 56L117 57L116 56M141 56L142 57L141 56z"/>
<path style="fill:#59595b; stroke:none;" d="M167 56C160.176 61.9043 147.508 67.0924 143.179 75.0903C139.504 81.8801 140.156 92.4603 137.645 100C131.982 117.001 121.701 130.596 109 142.985C104.671 147.208 94.6817 158.282 88 157.404C79.8131 156.329 69.5832 144.537 64 139L63 139C47.983 151.229 28.1987 166.234 17 182C25.2452 178.447 33.1424 173.497 41 169.139C44.0612 167.441 48.2613 163.935 52 164.65C66.9792 167.516 74.9975 189.648 93 185.606C102.443 183.487 112.784 173.992 120 167.866C144.063 147.435 160.638 121.347 165.919 90C167.539 80.3837 170.876 65.2376 167 56z"/>
<path style="fill:#9ba5ab; stroke:none;" d="M168 56L168 70L169 70L168 56z"/>
<path style="fill:#5fa6cd; stroke:none;" d="M115 57L116 58L115 57M113 58L114 59L113 58z"/>
<path style="fill:#9ba5ab; stroke:none;" d="M164 58L165 59L164 58M111 59L112 60L111 59z"/>
<path style="fill:#5fa6cd; stroke:none;" d="M137 59L138 60L137 59M136 60L137 61L136 60z"/>
<path style="fill:#9ba5ab; stroke:none;" d="M161 60L162 61L161 60z"/>
<path style="fill:#5fa6cd; stroke:none;" d="M108 61L109 62L108 61M135 61L136 62L135 61z"/>
<path style="fill:#9ba5ab; stroke:none;" d="M160 61L161 62L160 61z"/>
<path style="fill:#5fa6cd; stroke:none;" d="M106 62L107 63L106 62z"/>
<path style="fill:#9ba5ab; stroke:none;" d="M134 62L135 63L134 62M104 63L105 64L104 63M157 63L158 64L157 63z"/>
<path style="fill:#5fa6cd; stroke:none;" d="M101 65L102 66L101 65M130 65L131 66L130 65z"/>
<path style="fill:#9ba5ab; stroke:none;" d="M154 65L155 66L154 65z"/>
<path style="fill:#5fa6cd; stroke:none;" d="M99 66L100 67L99 66M129 66L130 67L129 66z"/>
<path style="fill:#9ba5ab; stroke:none;" d="M153 66L154 67L153 66M97 67L98 68L97 67z"/>
<path style="fill:#5fa6cd; stroke:none;" d="M128 67L129 68L128 67z"/>
<path style="fill:#9ba5ab; stroke:none;" d="M127 68L128 69L127 68M150 68L151 69L150 68z"/>
<path style="fill:#5fa6cd; stroke:none;" d="M9 69L9 75L10 75L9 69M94 69L95 70L94 69M92 70L93 71L92 70z"/>
<path style="fill:#9ba5ab; stroke:none;" d="M147 70L148 71L147 70M90 71L91 72L90 71z"/>
<path style="fill:#5fa6cd; stroke:none;" d="M123 71L124 72L123 71z"/>
<path style="fill:#9ba5ab; stroke:none;" d="M146 71L147 72L146 71z"/>
<path style="fill:#5fa6cd; stroke:none;" d="M122 72L123 73L122 72M87 73L88 74L87 73M121 73L122 74L121 73z"/>
<path style="fill:#9ba5ab; stroke:none;" d="M143 73L144 74L143 73z"/>
<path style="fill:#5fa6cd; stroke:none;" d="M85 74L86 75L85 74z"/>
<path style="fill:#9ba5ab; stroke:none;" d="M120 74L121 75L120 74M142.333 74.6667L142.667 75.3333L142.333 74.6667M9 75L9 78L10 78L9 75M83 75L84 76L83 75M119 75L120 76L119 75z"/>
<path style="fill:#5fa6cd; stroke:none;" d="M82 76L83 77L82 76z"/>
<path style="fill:#9ba5ab; stroke:none;" d="M35.3333 77.6667L35.6667 78.3333L35.3333 77.6667z"/>
<path style="fill:#5fa6cd; stroke:none;" d="M80 77L81 78L80 77M116 77L117 78L116 77z"/>
<path style="fill:#9ba5ab; stroke:none;" d="M167 77L167 83L168 83L167 77M78 78L79 79L78 78z"/>
<path style="fill:#5fa6cd; stroke:none;" d="M115 78L116 79L115 78M35 79L35 82L36 82L35 79M114 79L115 80L114 79M75 80L76 81L75 80M113 80L114 81L113 80M73 81L74 82L73 81z"/>
<path style="fill:#9ba5ab; stroke:none;" d="M112 81L113 82L112 81M141 81L141 84L142 84L141 81z"/>
<path style="fill:#5fa6cd; stroke:none;" d="M10 82L10 85L11 85L10 82z"/>
<path style="fill:#9ba5ab; stroke:none;" d="M71 82L72 83L71 82M36 84L37 85L36 84z"/>
<path style="fill:#5fa6cd; stroke:none;" d="M68 84L69 85L68 84M108 84L109 85L108 84z"/>
<path style="fill:#9ba5ab; stroke:none;" d="M10 85L11 86L10 85z"/>
<path style="fill:#5fa6cd; stroke:none;" d="M36.3333 85.6667L36.6667 86.3333L36.3333 85.6667z"/>
<path style="fill:#9ba5ab; stroke:none;" d="M66 85L67 86L66 85z"/>
<path style="fill:#5fa6cd; stroke:none;" d="M107 85L108 86L107 85z"/>
<path style="fill:#9ba5ab; stroke:none;" d="M64 86L65 87L64 86z"/>
<path style="fill:#5fa6cd; stroke:none;" d="M106 86L107 87L106 86z"/>
<path style="fill:#9ba5ab; stroke:none;" d="M166 86L166 90L167 90L166 86z"/>
<path style="fill:#5fa6cd; stroke:none;" d="M63 87L64 88L63 87z"/>
<path style="fill:#9ba5ab; stroke:none;" d="M105 87L106 88L105 87M140 87L140 90L141 90L140 87z"/>
<path style="fill:#5fa6cd; stroke:none;" d="M61 88L62 89L61 88M11.3333 89.6667L11.6667 90.3333L11.3333 89.6667z"/>
<path style="fill:#9ba5ab; stroke:none;" d="M37.3333 89.6667L37.6667 90.3333L37.3333 89.6667M59 89L60 90L59 89M57 90L58 91L57 90z"/>
<path style="fill:#5fa6cd; stroke:none;" d="M101 90L102 91L101 90z"/>
<path style="fill:#9ba5ab; stroke:none;" d="M11 91L12 92L11 91z"/>
<path style="fill:#5fa6cd; stroke:none;" d="M37 91L38 92L37 91M56 91L57 92L56 91M100 91L101 92L100 91M54 92L55 93L54 92z"/>
<path style="fill:#9ba5ab; stroke:none;" d="M99 92L100 93L99 92M139.333 92.6667L139.667 93.3333L139.333 92.6667M165 92L165 95L166 95L165 92M52 93L53 94L52 93M98 93L99 94L98 93M38 94L39 95L38 94z"/>
<path style="fill:#5fa6cd; stroke:none;" d="M12 95L13 96L12 95M38 95L39 96L38 95M49 95L50 96L49 95z"/>
<path style="fill:#9ba5ab; stroke:none;" d="M12 96L13 97L12 96z"/>
<path style="fill:#5fa6cd; stroke:none;" d="M47 96L48 97L47 96M94 96L95 97L94 96z"/>
<path style="fill:#9ba5ab; stroke:none;" d="M138.333 96.6667L138.667 97.3333L138.333 96.6667M39 97L40 98L39 97M45 97L46 98L45 97z"/>
<path style="fill:#5fa6cd; stroke:none;" d="M93 97L94 98L93 97z"/>
<path style="fill:#9ba5ab; stroke:none;" d="M164.333 97.6667L164.667 98.3333L164.333 97.6667z"/>
<path style="fill:#5fa6cd; stroke:none;" d="M39 98L40 99L39 98M92 98L93 99L92 98M13.3333 99.6667L13.6667 100.333L13.3333 99.6667M42 99L43 100L42 99z"/>
<path style="fill:#9ba5ab; stroke:none;" d="M91 99L92 100L91 99M137.333 99.6667L137.667 100.333L137.333 99.6667z"/>
<path style="fill:#5fa6cd; stroke:none;" d="M40 100L41 101L40 100z"/>
<path style="fill:#9ba5ab; stroke:none;" d="M163.333 101.667L163.667 102.333L163.333 101.667M136.333 102.667L136.667 103.333L136.333 102.667z"/>
<path style="fill:#5fa6cd; stroke:none;" d="M14 103L15 104L14 103M86 103L87 104L86 103z"/>
<path style="fill:#9ba5ab; stroke:none;" d="M14 104L15 105L14 104z"/>
<path style="fill:#5fa6cd; stroke:none;" d="M85 104L86 105L85 104M84 105L85 106L84 105z"/>
<path style="fill:#9ba5ab; stroke:none;" d="M135 105L136 106L135 105M162 105L163 106L162 105z"/>
<path style="fill:#5fa6cd; stroke:none;" d="M15.3333 106.667L15.6667 107.333L15.3333 106.667z"/>
<path style="fill:#9ba5ab; stroke:none;" d="M83 106L84 107L83 106M134.333 107.667L134.667 108.333L134.333 107.667M161.333 108.667L161.667 109.333L161.333 108.667z"/>
<path style="fill:#5fa6cd; stroke:none;" d="M79 109L80 110L79 109M16 110L17 111L16 110M78 110L79 111L78 110z"/>
<path style="fill:#9ba5ab; stroke:none;" d="M133 110L134 111L133 110M77 111L78 112L77 111M160 111L161 112L160 111z"/>
<path style="fill:#5fa6cd; stroke:none;" d="M17 112L18 113L17 112z"/>
<path style="fill:#9ba5ab; stroke:none;" d="M76 112L77 113L76 112M132 112L133 113L132 112M17 113L18 114L17 113M131 114L132 115L131 114M159 114L160 115L159 114z"/>
<path style="fill:#5fa6cd; stroke:none;" d="M18 115L19 116L18 115M72 115L73 116L72 115M71 116L72 117L71 116z"/>
<path style="fill:#9ba5ab; stroke:none;" d="M130 116L131 117L130 116M158.333 116.667L158.667 117.333L158.333 116.667z"/>
<path style="fill:#5fa6cd; stroke:none;" d="M19 117L20 118L19 117z"/>
<path style="fill:#9ba5ab; stroke:none;" d="M70 117L71 118L70 117M19 118L20 119L19 118M69 118L70 119L69 118M129 118L130 119L129 118M128 119L129 120L128 119M157 119L158 120L157 119M20 120L21 121L20 120z"/>
<path style="fill:#5fa6cd; stroke:none;" d="M65 121L66 122L65 121z"/>
<path style="fill:#9ba5ab; stroke:none;" d="M127 121L128 122L127 121M156 121L157 122L156 121z"/>
<path style="fill:#5fa6cd; stroke:none;" d="M21 122L22 123L21 122M64 122L65 123L64 122M63 123L64 124L63 123z"/>
<path style="fill:#9ba5ab; stroke:none;" d="M155 123L156 124L155 123z"/>
<path style="fill:#5fa6cd; stroke:none;" d="M22 124L23 125L22 124z"/>
<path style="fill:#9ba5ab; stroke:none;" d="M62 124L63 125L62 124M125 124L126 125L125 124M61 125L62 126L61 125M154 125L155 126L154 125z"/>
<path style="fill:#5fa6cd; stroke:none;" d="M23 126L24 127L23 126z"/>
<path style="fill:#9ba5ab; stroke:none;" d="M123 127L124 128L123 127M153 127L154 128L153 127z"/>
<path style="fill:#5fa6cd; stroke:none;" d="M24 128L25 129L24 128M57 128L58 129L57 128z"/>
<path style="fill:#9ba5ab; stroke:none;" d="M122 128L123 129L122 128z"/>
<path style="fill:#5fa6cd; stroke:none;" d="M56 129L57 130L56 129z"/>
<path style="fill:#9ba5ab; stroke:none;" d="M152 129L153 130L152 129M25 130L26 131L25 130M55 130L56 131L55 130M54 131L55 132L54 131M120 131L121 132L120 131M151 131L152 132L151 131M26 132L27 133L26 132M119 132L120 133L119 132M150 132L151 133L150 132z"/>
<path style="fill:#5fa6cd; stroke:none;" d="M27 133L28 134L27 133z"/>
<path style="fill:#9ba5ab; stroke:none;" d="M118 133L119 134L118 133z"/>
<path style="fill:#5fa6cd; stroke:none;" d="M50 134L51 135L50 134z"/>
<path style="fill:#9ba5ab; stroke:none;" d="M117 134L118 135L117 134M149 134L150 135L149 134M28 135L29 136L28 135z"/>
<path style="fill:#5fa6cd; stroke:none;" d="M49 135L50 136L49 135z"/>
<path style="fill:#9ba5ab; stroke:none;" d="M116 135L117 136L116 135z"/>
<path style="fill:#5fa6cd; stroke:none;" d="M29 136L30 137L29 136z"/>
<path style="fill:#9ba5ab; stroke:none;" d="M48 136L49 137L48 136M148 136L149 137L148 136M47 137L48 138L47 137M147 137L148 138L147 137M30 138L31 139L30 138M63 138L64 139L63 138z"/>
<path style="fill:#5fa6cd; stroke:none;" d="M31 139L32 140L31 139M44 139L45 140L44 139z"/>
<path style="fill:#9ba5ab; stroke:none;" d="M62 139L63 140L62 139M64 139L65 140L64 139M146 139L147 140L146 139z"/>
<path style="fill:#5fa6cd; stroke:none;" d="M43 140L44 141L43 140z"/>
<path style="fill:#9ba5ab; stroke:none;" d="M61 140L62 141L61 140M65 140L66 141L65 140M145 140L146 141L145 140M32 141L33 142L32 141z"/>
<path style="fill:#5fa6cd; stroke:none;" d="M42 141L43 142L42 141z"/>
<path style="fill:#9ba5ab; stroke:none;" d="M66 141L67 142L66 141M144 141L145 142L144 141z"/>
<path style="fill:#5fa6cd; stroke:none;" d="M33 142L34 143L33 142z"/>
<path style="fill:#9ba5ab; stroke:none;" d="M41 142L42 143L41 142M67 142L68 143L67 142M40 143L41 144L40 143M68 143L69 144L68 143M143 143L144 144L143 143M69 144L70 145L69 144M107 144L108 145L107 144M142 144L143 145L142 144M35 145L36 146L35 145M70 145L71 146L70 145M106 145L107 146L106 145M36 146L37 147L36 146M105 146L106 147L105 146M53 147L54 148L53 147M104 147L105 148L104 147M140 147L141 148L140 147M52 148L53 149L52 148M74 148L75 149L74 148M139 148L140 149L139 148M51 149L52 150L51 149M75 149L76 150L75 149M138 149L139 150L138 149M50 150L51 151L50 150M100 150L101 151L100 150M137 150L138 151L137 150M49 151L50 152L49 151M99 151L100 152L99 151M48 152L49 153L48 152M79 152L80 153L79 152M80 153L81 154L80 153M96 153L97 154L96 153M82 154L83 155L82 154M95 154L96 155L95 154M83 155L84 156L83 155M92 156L93 157L92 156M42 157L43 158L42 157M86 157L87 158L86 157M41 158L42 159L41 158M89 158L90 159L89 158M40 159L41 160L40 159M39 160L40 161L39 160M38 161L39 162L38 161M37 162L38 163L37 162M36 163L37 164L36 163M52 163L53 164L52 163M49 164L50 165L49 164M53 164L54 165L53 164M123 164L124 165L123 164M47 165L48 166L47 165M122 165L123 166L122 165M45 166L46 167L45 166M121 166L122 167L121 166M43 167L44 168L43 167M120 167L121 168L120 167M58 168L59 169L58 168M29 169L30 170L29 169M40 169L41 170L40 169M59 169L60 170L59 169M28 170L29 171L28 170M38 170L39 171L38 170M116 170L117 171L116 170M27 171L28 172L27 171M36 171L37 172L36 171M115 171L116 172L115 171M26 172L27 173L26 172M34 172L35 173L34 172M63 172L64 173L63 172M25 173L26 174L25 173M32 173L33 174L32 173M64 173L65 174L64 173M112 173L113 174L112 173M24 174L25 175L24 174M111 174L112 175L111 174M29 175L30 176L29 175M67 175L68 176L67 175M27 176L28 177L27 176M108 176L109 177L108 176M25 177L26 178L25 177M70 177L71 178L70 177M23 178L24 179L23 178M71 178L72 179L71 178M105 178L106 179L105 178M18 179L19 180L18 179M73 179L74 180L73 179M104 179L105 180L104 179M17 180L18 181L17 180M74 180L75 181L74 180M102 180L103 181L102 180M16 181L15 183L17 183L16 181M18 181L19 182L18 181M76 181L77 182L76 181M101 181L102 182L101 181M77 182L78 183L77 182M99 182L100 183L99 182M79 183L80 184L79 183M96 184L97 185L96 184M83 185L84 186L83 185M94 185L95 186L94 185M86 186L86 187L92 187L86 186z"/>
</svg>
